# xmcd
#
# Track frame offsets:
#	150
#	13501
#	29701
#	41466
#	60040
#	77576
#	87866
#	103686
#	121192
#	141725
#	157560
#
# Disc length: 2240 seconds
#
# Revision: 2
# Processed by: cddbd v1.5.1PL0 Copyright (c) Steve Scherf et al.
# Submitted via: audiograbber 1.83.01
#
DISCID=7b08be0b
DTITLE=Take Nat - The Music of Nat King Cole
DYEAR=2001
DGENRE=Blues
TTITLE0=I´m an Errand Boy for Rythm
TTITLE1=Sweet Lorraine
TTITLE2=Straighten up and Fly right
TTITLE3=Baby, baby all the Time 
TTITLE4=I don´t knw enough about you
TTITLE5=That´s what
TTITLE6=You´re looking at me
TTITLE7=It´s only a Papermoon
TTITLE8=Is you is of is you ain´t my Baby
TTITLE9=When I take my Sugar to Tea
TTITLE10=Sweet Georgia Brown
EXTD=
EXTT0=
EXTT1=
EXTT2=
EXTT3=
EXTT4=
EXTT5=
EXTT6=
EXTT7=
EXTT8=
EXTT9=
EXTT10=
PLAYORDER=
